<?xml version="1.0" standalone="no"?><!DOCTYPE svg PUBLIC "-//W3C//DTD SVG 1.1//EN" "http://www.w3.org/Graphics/SVG/1.1/DTD/svg11.dtd" ><svg xmlns="http://www.w3.org/2000/svg"><metadata></metadata><defs><font id="Google:Roboto Condensed Bold:2016" horiz-adv-x="1724"><font-face font-family="Roboto Condensed" font-weight="700" font-stretch="normal" units-per-em="2048" panose-1="2 0 0 0 0 0 0 0 0 0" ascent="1900" descent="-500" x-height="0" bbox="-116 -466 1611 1850" underline-thickness="100" underline-position="-150" unicode-range="U+0021-2122" /><missing-glyph horiz-adv-x="803" d="M104 0 l0 1456 l595 0 l0 -1456 l-595 0 ZM184 1402 l216 -605 l215 605 l-431 0 ZM424 728 l229 -642 l0 1284 l-229 -642 ZM149 1362 l0 -1268 l226 634 l-226 634 ZM184 54 l431 0 l-215 605 l-216 -605 Z" /><glyph glyph-name="exclam" unicode="!" d="M425 1456 l-33 -1007 l-234 0 l-34 1007 l301 0 ZM119 138 q0 65 42 109.5 q42 44.5 113 44.5 q70 0 112 -44.5 q42 -44.5 42 -109.5 q0 -66 -42 -110.5 q-42 -44.5 -112 -44.5 q-71 0 -113 44.5 q-42 44.5 -42 110.5 Z" /><glyph glyph-name="quotedbl" unicode="&quot;" d="M266 1399 l-40 -413 l-164 0 l0 551 l204 0 l0 -138 ZM592 1399 l-39 -413 l-163 0 l0 551 l202 0 l0 -138 Z" /><glyph glyph-name="numbersign" unicode="#" d="M506 0 l60 410 l-133 0 l-60 -410 l-175 0 l60 410 l-184 0 l0 174 l209 0 l42 282 l-188 0 l0 174 l213 0 l61 416 l174 0 l-61 -416 l134 0 l61 416 l175 0 l-61 -416 l179 0 l0 -174 l-204 0 l-42 -282 l182 0 l0 -174 l-207 0 l-60 -410 l-175 0 ZM458 584 l133 0 l42 282 l-134 0 l-41 -282 Z" /><glyph glyph-name="dollar" unicode="$" d="M940 386 q0 -174 -92 -277.5 q-92 -103.5 -245 -124.5 l0 -200 l-150 0 l0 200 q-139 20 -250 128 q-111 108 -111 346 l283 0 q0 -142 46.5 -193.5 q46.5 -51.5 105.5 -51.5 q67 0 98.5 48.5 q31.5 48.5 31.5 122.5 q0 82 -33.5 130.5 q-33.5 48.5 -112.5 91.5 q-166 74 -268.5 170.5 q-102.5 96.5 -102.5 293.5 q0 168 92 275.5 q92 107.5 243 127.5 l0 215 l150 0 l0 -219 q145 -27 231 -147 q86 -120 86 -316 l-282 0 q0 118 -35 177.5 q-35 59.5 -89 59.5 q-60 0 -87 -49.5 q-27 -49.5 -27 -123.5 q0 -74 33.5 -121.5 q33.5 -47.5 115.5 -94.5 q165 -77 267 -174.5 q102 -97.5 102 -293.5 Z" /><glyph glyph-name="percent" unicode="%" d="M97 1099 l0 77 q0 124 69 212.5 q69 88.5 203 88.5 q138 0 206 -88.5 q68 -88.5 68 -212.5 l0 -77 q0 -122 -67.5 -210.5 q-67.5 -88.5 -204.5 -88.5 q-136 0 -205 88.5 q-69 88.5 -69 210.5 ZM1020 1247 l-597 -1138 l-135 77 l597 1138 l135 -77 ZM282 1176 l0 -77 q0 -51 22 -91 q22 -40 67 -40 q44 0 65.5 40 q21.5 40 21.5 91 l0 77 q0 52 -21.5 92.5 q-21.5 40.5 -67.5 40.5 q-44 0 -65.5 -40.5 q-21.5 -40.5 -21.5 -92.5 ZM672 280 l0 77 q0 123 69.5 211.5 q69.5 88.5 203.5 88.5 q137 0 205 -88.5 q68 -88.5 68 -211.5 l0 -77 q0 -123 -67.5 -211.5 q-67.5 -88.5 -203.5 -88.5 q-136 0 -205.5 88.5 q-69.5 88.5 -69.5 211.5 ZM857 357 l0 -77 q0 -52 25.5 -92 q25.5 -40 64.5 -40 q54 0 70 40 q16 40 16 92 l0 77 q0 52 -22 92 q-22 40 -66 40 q-45 0 -66.5 -40 q-21.5 -40 -21.5 -92 Z" /><glyph glyph-name="ampersand" unicode="&amp;" d="M831 0 l-54 76 q-132 -97 -298 -97 q-188 0 -297.5 116 q-109.5 116 -109.5 297 q0 126 61 210 q61 84 161 166 q-55 87 -87 164.5 q-32 77.5 -32 160.5 q0 173 95.5 278.5 q95.5 105.5 253.5 105.5 q148 0 238 -101.5 q90 -101.5 90 -238.5 q0 -102 -44 -181.5 q-44 -79.5 -121 -140.5 l-74 -60 l186 -262 q35 103 35 222 l239 0 q0 -130 -25 -244.5 q-25 -114.5 -85 -206.5 l188 -264 l-320 0 ZM427 1097 q0 -41 18.5 -83.5 q18.5 -42.5 49.5 -89.5 l46 35 q53 41 65.5 78.5 q12.5 37.5 12.5 81.5 q0 45 -25.5 84 q-25.5 39 -70.5 39 q-48 0 -72 -43 q-24 -43 -24 -102 ZM356 409 q0 -85 40 -140 q40 -55 98 -55 q77 0 149 52 l-230 326 l-7 -5 q-31 -48 -40.5 -92.5 q-9.5 -44.5 -9.5 -85.5 Z" /><glyph glyph-name="quotesingle" unicode="&#39;" d="M276 1388 l-30 -404 l-183 0 l0 552 l213 0 l0 -148 Z" /><glyph glyph-name="parenleft" unicode="(" d="M121 569 l0 23 q0 282 68.5 493 q68.5 211 168.5 346 q100 135 195 185 l53 -157 q-89 -84 -168.5 -291.5 q-79.5 -207.5 -79.5 -573.5 l0 -27 q0 -366 79.5 -574.5 q79.5 -208.5 168.5 -293.5 l-53 -154 q-95 50 -195 184.5 q-100 134.5 -168.5 346.5 q-68.5 212 -68.5 493 Z" /><glyph glyph-name="parenright" unicode=")" d="M557 592 l0 -23 q0 -271 -70.5 -484 q-70.5 -213 -174.5 -351.5 q-104 -138.5 -203 -188.5 l-53 154 q88 84 168 293 q80 209 80 575 l0 27 q0 366 -81.5 575 q-81.5 209 -166.5 293 l53 154 q99 -50 203 -189 q104 -139 174.5 -351 q70.5 -212 70.5 -484 Z" /><glyph glyph-name="asterisk" unicode="*" d="M125 690 l218 272 l-316 90 l60 181 l311 -126 l-20 349 l197 0 l-21 -355 l304 123 l60 -184 l-321 -89 l210 -266 l-159 -113 l-182 292 l-181 -282 l-160 108 Z" /><glyph glyph-name="plus" unicode="+" d="M903 554 l-283 0 l0 -408 l-267 0 l0 408 l-288 0 l0 263 l288 0 l0 389 l267 0 l0 -389 l283 0 l0 -263 Z" /><glyph glyph-name="comma" unicode="," d="M386 247 l-1 -198 q0 -114 -55.5 -228.5 q-55.5 -114.5 -141.5 -188.5 l-152 79 q37 68 71 141 q34 73 34 182 l0 213 l245 0 Z" /><glyph glyph-name="hyphen" unicode="-" d="M612 742 l0 -235 l-489 0 l0 235 l489 0 Z" /><glyph glyph-name="period" unicode="." d="M126 144 q0 67 44.5 111.5 q44.5 44.5 120.5 44.5 q75 0 119.5 -44.5 q44.5 -44.5 44.5 -111.5 q0 -66 -44.5 -110.5 q-44.5 -44.5 -119.5 -44.5 q-76 0 -120.5 44.5 q-44.5 44.5 -44.5 110.5 Z" /><glyph glyph-name="slash" unicode="/" d="M643 1456 l-437 -1581 l-207 0 l438 1581 l206 0 Z" /><glyph glyph-name="zero" unicode="0" d="M941 856 l0 -254 q0 -327 -118 -474.5 q-118 -147.5 -304 -147.5 q-186 0 -305 147.5 q-119 147.5 -119 474.5 l0 254 q0 328 118 474 q118 146 305 146 q186 0 304.5 -146 q118.5 -146 118.5 -474 ZM658 564 l0 333 q0 192 -38 268 q-38 76 -102 76 q-64 0 -102 -76 q-38 -76 -38 -268 l0 -333 q0 -194 38 -271.5 q38 -77.5 103 -77.5 q65 0 102 77.5 q37 77.5 37 271.5 Z" /><glyph glyph-name="one" unicode="1" d="M718 1458 l0 -1458 l-283 0 l0 1112 l-277 -106 l0 236 l530 216 l30 0 Z" /><glyph glyph-name="two" unicode="2" d="M954 235 l0 -235 l-859 0 l0 200 l394 501 q84 117 115.5 193.5 q31.5 76.5 31.5 140.5 q0 96 -34 151.5 q-34 55.5 -96 55.5 q-76 0 -113.5 -69.5 q-37.5 -69.5 -37.5 -174.5 l-284 0 q0 196 118 337.5 q118 141.5 322 141.5 q200 0 304.5 -110.5 q104.5 -110.5 104.5 -303.5 q0 -146 -73.5 -277.5 q-73.5 -131.5 -201.5 -283.5 l-187 -267 l496 0 Z" /><glyph glyph-name="three" unicode="3" d="M484 629 l-137 0 l0 229 l137 0 q78 0 114.5 54.5 q36.5 54.5 36.5 144.5 q0 80 -34 132.5 q-34 52.5 -104 52.5 q-53 0 -93.5 -43.5 q-40.5 -43.5 -40.5 -118.5 l-283 0 q0 180 119.5 288.5 q119.5 108.5 289.5 108.5 q191 0 310 -105.5 q119 -105.5 119 -309.5 q0 -95 -48.5 -180 q-48.5 -85 -137.5 -134 q102 -43 153 -131.5 q51 -88.5 51 -207.5 q0 -205 -129 -317 q-129 -112 -319 -112 q-159 0 -290 102 q-131 102 -131 318 l283 0 q0 -80 41 -132.5 q41 -52.5 104 -52.5 q73 0 115.5 54.5 q42.5 54.5 42.5 143.5 q0 115 -44.5 165.5 q-44.5 50.5 -124.5 50.5 Z" /><glyph glyph-name="four" unicode="4" d="M63 499 l494 957 l285 0 l0 -906 l123 0 l0 -235 l-123 0 l0 -315 l-283 0 l0 315 l-483 0 l-13 184 ZM339 550 l220 0 l0 489 l-7 -13 l-213 -476 Z" /><glyph glyph-name="five" unicode="5" d="M349 659 l-225 57 l73 740 l704 0 l0 -242 l-472 0 l-27 -311 q23 16 68 35 q45 19 101 19 q181 0 278.5 -129 q97.5 -129 97.5 -360 q0 -194 -105.5 -341 q-105.5 -147 -321.5 -147 q-161 0 -292 112 q-131 112 -133 314 l280 0 q14 -191 144 -191 q80 0 112.5 78.5 q32.5 78.5 32.5 191.5 q0 114 -41.5 184 q-41.5 70 -130.5 70 q-61 0 -92 -25.5 q-31 -25.5 -51 -54.5 Z" /><glyph glyph-name="six" unicode="6" d="M963 480 q0 -212 -115.5 -356 q-115.5 -144 -310.5 -144 q-200 0 -318.5 161.5 q-118.5 161.5 -118.5 418.5 l0 113 q0 354 164 576.5 q164 222.5 468 222.5 l38 0 l0 -240 l-14 0 q-163 0 -254.5 -96 q-91.5 -96 -112.5 -264 q42 47 99 75 q57 28 128 28 q174 0 260.5 -146 q86.5 -146 86.5 -349 ZM383 521 q0 -153 41 -229 q41 -76 107 -76 q68 0 109 74.5 q41 74.5 41 187.5 q0 116 -42 189.5 q-42 73.5 -111 73.5 q-54 0 -90.5 -34 q-36.5 -34 -54.5 -83 l0 -103 Z" /><glyph glyph-name="seven" unicode="7" d="M949 1456 l0 -162 l-459 -1294 l-299 0 l461 1221 l-584 0 l0 235 l881 0 Z" /><glyph glyph-name="eight" unicode="8" d="M936 400 q0 -207 -118 -313.5 q-118 -106.5 -299 -106.5 q-180 0 -300 106.5 q-120 106.5 -120 313.5 q0 121 52.5 211 q52.5 90 141.5 140 q-170 104 -170 318 q0 198 111.5 303 q111.5 105 283.5 105 q174 0 284 -105 q110 -105 110 -303 q0 -214 -169 -319 q89 -50 141 -140 q52 -90 52 -210 ZM629 1055 q0 84 -27.5 135.5 q-27.5 51.5 -83.5 51.5 q-111 0 -111 -187 q0 -86 28 -138.5 q28 -52.5 84 -52.5 q56 0 83 52.5 q27 52.5 27 138.5 ZM653 421 q0 97 -36.5 152.5 q-36.5 55.5 -99.5 55.5 q-63 0 -99 -55.5 q-36 -55.5 -36 -152.5 q0 -96 36 -151 q36 -55 101 -55 q65 0 99.5 55 q34.5 55 34.5 151 Z" /><glyph glyph-name="nine" unicode="9" d="M931 781 q0 -360 -160 -578 q-160 -218 -477 -218 l-18 0 l0 244 l14 0 q168 0 253 85.5 q85 85.5 102 248.5 q-89 -92 -197 -92 q-175 0 -266.5 140 q-91.5 140 -91.5 350 q0 212 114 364 q114 152 307 152 q189 0 304.5 -163 q115.5 -163 115.5 -432 l0 -101 ZM372 964 q0 -111 36 -190.5 q36 -79.5 112 -79.5 q43 0 76.5 33 q33.5 33 52.5 81 l0 128 q0 153 -41.5 229 q-41.5 76 -98.5 76 q-67 0 -102 -85.5 q-35 -85.5 -35 -191.5 Z" /><glyph glyph-name="colon" unicode=":" d="M128 144 q0 67 44.5 111.5 q44.5 44.5 120.5 44.5 q75 0 119.5 -44.5 q44.5 -44.5 44.5 -111.5 q0 -66 -44.5 -110.5 q-44.5 -44.5 -119.5 -44.5 q-76 0 -120.5 44.5 q-44.5 44.5 -44.5 110.5 ZM127 962 q0 67 44.5 111.5 q44.5 44.5 120.5 44.5 q75 0 119.5 -44.5 q44.5 -44.5 44.5 -111.5 q0 -66 -44.5 -110.5 q-44.5 -44.5 -119.5 -44.5 q-76 0 -120.5 44.5 q-44.5 44.5 -44.5 110.5 Z" /><glyph glyph-name="semicolon" unicode=";" d="M111 962 q0 67 44.5 111.5 q44.5 44.5 120.5 44.5 q75 0 119.5 -44.5 q44.5 -44.5 44.5 -111.5 q0 -66 -44.5 -110.5 q-44.5 -44.5 -119.5 -44.5 q-76 0 -120.5 44.5 q-44.5 44.5 -44.5 110.5 ZM410 247 l-1 -198 q0 -114 -55.5 -228.5 q-55.5 -114.5 -141.5 -188.5 l-152 79 q37 68 71 141 q34 73 34 182 l0 213 l245 0 Z" /><glyph glyph-name="less" unicode="&lt;" d="M789 136 l-728 365 l0 238 l728 364 l0 -281 l-453 -204 l453 -200 l0 -282 Z" /><glyph glyph-name="equal" unicode="=" d="M895 982 l0 -237 l-762 0 l0 237 l762 0 ZM895 549 l0 -238 l-762 0 l0 238 l762 0 Z" /><glyph glyph-name="greater" unicode="&gt;" d="M122 1103 l738 -365 l0 -238 l-738 -364 l0 280 l463 206 l-463 201 l0 280 Z" /><glyph glyph-name="question" unicode="?" d="M553 449 l-249 0 q0 135 27 219 q27 84 99 161 q54 61 90 115.5 q36 54.5 36 126.5 q0 167 -109 167 q-38 0 -74.5 -39.5 q-36.5 -39.5 -38.5 -129.5 l-284 0 q3 210 116.5 308.5 q113.5 98.5 280.5 98.5 q184 0 288.5 -101.5 q104.5 -101.5 104.5 -290.5 q0 -131 -65 -218.5 q-65 -87.5 -145 -178.5 q-45 -51 -60.5 -106 q-15.5 -55 -16.5 -132 ZM278 142 q0 66 42 110.5 q42 44.5 113 44.5 q71 0 112.5 -44.5 q41.5 -44.5 41.5 -110.5 q0 -65 -41.5 -109.5 q-41.5 -44.5 -112.5 -44.5 q-71 0 -113 44.5 q-42 44.5 -42 109.5 Z" /><glyph glyph-name="at" unicode="@" d="M1082 -364 q-60 -45 -148 -67 q-88 -22 -168 -22 q-336 0 -516.5 235.5 q-180.5 235.5 -166.5 680.5 q10 273 102.5 488.5 q92.5 215.5 255.5 340 q163 124.5 383 124.5 q325 0 499.5 -242 q174.5 -242 160.5 -636 q-4 -137 -43 -265.5 q-39 -128.5 -121 -211 q-82 -82.5 -214 -82.5 q-144 0 -205 135 q-81 -132 -208 -132 q-125 0 -194 123 q-69 123 -53 326 q24 256 135.5 407.5 q111.5 151.5 260.5 151.5 q100 0 158 -33 q58 -33 110 -76 l-44 -578 q-8 -98 16 -129.5 q24 -31.5 60 -31.5 q74 0 121 112 q47 112 51 276 q13 328 -108.5 525 q-121.5 197 -384.5 197 q-169 0 -289 -103 q-120 -103 -186 -281 q-66 -178 -74 -405 q-14 -364 117.5 -552.5 q131.5 -188.5 379.5 -188.5 q73 0 149.5 19.5 q76.5 19.5 129.5 48.5 l34 -154 ZM661 431 q-17 -268 101 -268 q22 0 54 31.5 q32 31.5 57 122.5 l37 489 q-24 7 -49 7 q-94 0 -140 -98 q-46 -98 -60 -284 Z" /><glyph glyph-name="A" unicode="a" d="M22 0 l455 1456 l269 0 l458 -1456 l-313 0 l-78 298 l-401 0 l-78 -298 l-312 0 ZM476 543 l273 0 l-137 520 l-136 -520 Z" /><glyph glyph-name="B" unicode="b" d="M1054 429 q0 -429 -455 -429 l-482 0 l0 1456 l450 0 q218 0 341.5 -97.5 q123.5 -97.5 123.5 -301.5 q0 -99 -43.5 -182 q-43.5 -83 -139.5 -125 q112 -32 158.5 -124 q46.5 -92 46.5 -197 ZM412 1211 l0 -364 l152 0 q173 0 173 179 q0 185 -170 185 l-155 0 ZM760 432 q0 93 -34 147.5 q-34 54.5 -116 54.5 l-198 0 l0 -390 l187 0 q86 0 123.5 53.5 q37.5 53.5 37.5 134.5 Z" /><glyph glyph-name="C" unicode="c" d="M810 486 l294 0 q-10 -248 -140 -377 q-130 -129 -364 -129 q-242 0 -375.5 160 q-133.5 160 -133.5 464 l0 247 q0 305 137.5 465.5 q137.5 160.5 375.5 160.5 q238 0 362 -133.5 q124 -133.5 140 -381.5 l-294 0 q-5 156 -49 213.5 q-44 57.5 -159 57.5 q-116 0 -167.5 -85 q-51.5 -85 -51.5 -295 l0 -249 q0 -206 45 -293 q45 -87 170 -87 q109 0 157 52 q48 52 53 210 Z" /><glyph glyph-name="D" unicode="d" d="M117 0 l0 1456 l385 0 q253 0 407 -161 q154 -161 154 -455 l0 -225 q0 -293 -154 -454 q-154 -161 -410 -161 l-382 0 ZM502 1211 l-90 0 l0 -967 l87 0 q157 0 213.5 86 q56.5 86 56.5 285 l0 227 q0 200 -56.5 284.5 q-56.5 84.5 -210.5 84.5 Z" /><glyph glyph-name="E" unicode="e" d="M117 0 l0 1456 l834 0 l0 -245 l-539 0 l0 -344 l457 0 l0 -237 l-457 0 l0 -386 l541 0 l0 -244 l-836 0 Z" /><glyph glyph-name="F" unicode="f" d="M117 0 l0 1456 l806 0 l0 -245 l-511 0 l0 -373 l456 0 l0 -244 l-456 0 l0 -594 l-295 0 Z" /><glyph glyph-name="G" unicode="g" d="M1108 766 l0 -601 q-46 -49 -160 -117 q-114 -68 -319 -68 q-243 0 -388.5 153.5 q-145.5 153.5 -145.5 470.5 l0 247 q0 318 139 472 q139 154 377 154 q247 0 363 -123.5 q116 -123.5 133 -360.5 l-285 0 q-12 137 -58.5 188.5 q-46.5 51.5 -144.5 51.5 q-115 0 -172 -86.5 q-57 -86.5 -57 -293.5 l0 -249 q0 -207 63 -293.5 q63 -86.5 193 -86.5 q78 0 113 21 q35 21 54 32 l0 267 l-207 0 l0 222 l502 0 Z" /><glyph glyph-name="H" unicode="h" d="M845 0 l0 623 l-433 0 l0 -623 l-295 0 l0 1456 l295 0 l0 -589 l433 0 l0 589 l293 0 l0 -1456 l-293 0 Z" /><glyph glyph-name="I" unicode="i" d="M424 1456 l0 -1456 l-294 0 l0 1456 l294 0 Z" /><glyph glyph-name="J" unicode="j" d="M596 449 l0 1007 l294 0 l0 -1007 q0 -218 -121 -343.5 q-121 -125.5 -300 -125.5 q-183 0 -303 109.5 q-120 109.5 -120 341.5 l296 0 q0 -117 35.5 -162 q35.5 -45 91.5 -45 q127 0 127 225 Z" /><glyph glyph-name="K" unicode="k" d="M794 0 l-266 563 l-116 -145 l0 -418 l-295 0 l0 1456 l295 0 l0 -633 l93 156 l271 477 l359 0 l-417 -640 l424 -816 l-348 0 Z" /><glyph glyph-name="L" unicode="l" d="M927 244 l0 -244 l-810 0 l0 1456 l295 0 l0 -1212 l515 0 Z" /><glyph glyph-name="M" unicode="m" d="M776 404 l274 1052 l384 0 l0 -1456 l-295 0 l0 394 l27 603 l-290 -997 l-201 0 l-290 997 l27 -603 l0 -394 l-295 0 l0 1456 l384 0 l275 -1052 Z" /><glyph glyph-name="N" unicode="n" d="M1136 1456 l0 -1456 l-294 0 l-430 955 l0 -955 l-295 0 l0 1456 l295 0 l430 -956 l0 956 l294 0 Z" /><glyph glyph-name="O" unicode="o" d="M1142 840 l0 -242 q0 -308 -144 -463 q-144 -155 -379 -155 q-234 0 -380 155 q-146 155 -146 463 l0 242 q0 315 145 475.5 q145 160.5 379 160.5 q235 0 380 -160.5 q145 -160.5 145 -475.5 ZM848 598 l0 244 q0 208 -59 298 q-59 90 -172 90 q-113 0 -171.5 -90 q-58.5 -90 -58.5 -298 l0 -244 q0 -198 59.5 -285.5 q59.5 -87.5 172.5 -87.5 q113 0 171 87.5 q58 87.5 58 285.5 Z" /><glyph glyph-name="P" unicode="p" d="M614 512 l-202 0 l0 -512 l-295 0 l0 1456 l497 0 q220 0 346.5 -136.5 q126.5 -136.5 126.5 -345.5 q0 -212 -126.5 -337 q-126.5 -125 -346.5 -125 ZM412 1211 l0 -454 l202 0 q92 0 133.5 60.5 q41.5 60.5 41.5 154.5 q0 94 -41.5 166.5 q-41.5 72.5 -133.5 72.5 l-202 0 Z" /><glyph glyph-name="Q" unicode="q" d="M1147 -91 l-185 -170 l-268 246 q-37 -5 -77 -5 q-234 0 -380 160 q-146 160 -146 475 l0 225 q0 315 145 475.5 q145 160.5 379 160.5 q235 0 380.5 -160.5 q145.5 -160.5 145.5 -475.5 l0 -225 q0 -184 -51.5 -315.5 q-51.5 -131.5 -143.5 -209.5 l201 -181 ZM847 615 l0 227 q0 208 -59.5 298 q-59.5 90 -172.5 90 q-113 0 -171.5 -90 q-58.5 -90 -58.5 -298 l0 -227 q0 -206 59.5 -298 q59.5 -92 172.5 -92 q113 0 171.5 92 q58.5 92 58.5 298 Z" /><glyph glyph-name="R" unicode="r" d="M778 0 l-219 532 l-146 0 l0 -532 l-295 0 l0 1456 l469 0 q218 0 340 -112.5 q122 -112.5 122 -327.5 q0 -158 -56 -255 q-56 -97 -155 -150 l256 -597 l0 -14 l-316 0 ZM413 1211 l0 -434 l166 0 q88 0 132 58.5 q44 58.5 44 156.5 q0 101 -39.5 160 q-39.5 59 -128.5 59 l-174 0 Z" /><glyph glyph-name="S" unicode="s" d="M733 383 q0 76 -37.5 124.5 q-37.5 48.5 -173.5 103.5 q-164 64 -287.5 166.5 q-123.5 102.5 -123.5 291.5 q0 184 129 295.5 q129 111.5 332 111.5 q209 0 333.5 -126 q124.5 -126 124.5 -323 l-294 0 q0 91 -39.5 150 q-39.5 59 -129.5 59 q-83 0 -122.5 -49 q-39.5 -49 -39.5 -119 q0 -71 59.5 -119 q59.5 -48 157.5 -91 q204 -73 305 -183 q101 -110 101 -290 q0 -192 -121 -298.5 q-121 -106.5 -329 -106.5 q-125 0 -240.5 51 q-115.5 51 -189.5 157 q-74 106 -74 272 l295 0 q0 -132 52.5 -186 q52.5 -54 156.5 -54 q85 0 120 46.5 q35 46.5 35 116.5 Z" /><glyph glyph-name="T" unicode="t" d="M52 1211 l0 245 l1009 0 l0 -245 l-361 0 l0 -1211 l-294 0 l0 1211 l-354 0 Z" /><glyph glyph-name="U" unicode="u" d="M770 1456 l295 0 l0 -999 q0 -253 -135 -365 q-135 -112 -344 -112 q-212 0 -346 112 q-134 112 -134 365 l0 999 l295 0 l0 -999 q0 -143 47.5 -188 q47.5 -45 137.5 -45 q91 0 137.5 45 q46.5 45 46.5 188 l0 999 Z" /><glyph glyph-name="V" unicode="v" d="M1164 1456 l-420 -1456 l-305 0 l-418 1456 l326 0 l244 -1056 l245 1056 l328 0 Z" /><glyph glyph-name="W" unicode="w" d="M1492 1456 l-259 -1456 l-295 0 l-169 859 l-169 -859 l-295 0 l-260 1456 l292 0 l138 -912 l171 912 l246 0 l172 -912 l137 912 l291 0 Z" /><glyph glyph-name="X" unicode="x" d="M378 1456 l196 -500 l196 500 l337 0 l-342 -722 l349 -734 l-340 0 l-200 509 l-200 -509 l-341 0 l350 734 l-342 722 l337 0 Z" /><glyph glyph-name="Y" unicode="y" d="M336 1456 l220 -654 l219 654 l321 0 l-391 -928 l0 -528 l-298 0 l0 528 l-391 928 l320 0 Z" /><glyph glyph-name="Z" unicode="z" d="M72 1211 l0 245 l940 0 l0 -172 l-590 -1040 l600 0 l0 -244 l-944 0 l0 177 l594 1034 l-600 0 Z" /><glyph glyph-name="bracketleft" unicode="[" d="M499 1696 l0 -225 l-105 0 l0 -1587 l105 0 l0 -224 l-388 0 l0 2036 l388 0 Z" /><glyph glyph-name="backslash" unicode="\" d="M520 -125 l-510 1581 l289 0 l510 -1581 l-289 0 Z" /><glyph glyph-name="bracketright" unicode="]" d="M35 1471 l0 225 l388 0 l0 -2036 l-388 0 l0 224 l106 0 l0 1587 l-106 0 Z" /><glyph glyph-name="asciicircum" unicode="^" d="M50 729 l251 727 l204 0 l250 -727 l-220 0 l-132 457 l-132 -457 l-221 0 Z" /><glyph glyph-name="underscore" unicode="_" d="M797 0 l0 -228 l-776 0 l0 228 l776 0 Z" /><glyph glyph-name="grave" unicode="`" d="M370 1536 l198 -309 l-239 0 l-277 309 l318 0 Z" /><glyph glyph-name="a" unicode="a" d="M617 0 q-15 34 -24 84 q-32 -43 -82 -73.5 q-50 -30.5 -124 -30.5 q-131 0 -222.5 88 q-91.5 88 -91.5 235 q0 165 106 261.5 q106 96.5 324 96.5 l76 0 l0 87 q0 133 -98 133 q-106 0 -106 -124 l-283 0 q0 142 107.5 243.5 q107.5 101.5 289.5 101.5 q161 0 267.5 -84 q106.5 -84 106.5 -274 l0 -480 q0 -92 9.5 -149 q9.5 -57 29.5 -98 l0 -17 l-285 0 ZM451 203 q46 0 79 19 q33 19 49 45 l0 225 l-67 0 q-80 0 -118 -49 q-38 -49 -38 -120 q0 -120 95 -120 Z" /><glyph glyph-name="b" unicode="b" d="M947 506 q0 -526 -348 -526 q-142 0 -225 127 l-9 -107 l-261 0 l0 1536 l282 0 l0 -542 q81 108 211 108 q183 0 266.5 -133 q83.5 -133 83.5 -392 l0 -71 ZM516 866 q-90 0 -130 -81 l0 -493 q39 -76 132 -76 q93 0 120 66 q27 66 27 224 l0 71 q0 147 -27.5 218 q-27.5 71 -121.5 71 Z" /><glyph glyph-name="c" unicode="c" d="M495 215 q124 0 124 160 l266 0 q-1 -185 -111.5 -290 q-110.5 -105 -273.5 -105 q-218 0 -324 137 q-106 137 -106 385 l0 78 q0 248 106 385 q106 137 323 137 q174 0 279.5 -108 q105.5 -108 106.5 -316 l-266 0 q0 189 -126 189 q-93 0 -116.5 -74 q-23.5 -74 -23.5 -213 l0 -78 q0 -143 23 -215 q23 -72 119 -72 Z" /><glyph glyph-name="d" unicode="d" d="M654 -1 l-13 112 q-86 -131 -225 -131 q-170 0 -260 134.5 q-90 134.5 -90 388.5 l0 71 q0 528 351 528 q127 0 209 -108 l0 542 l284 0 l0 -1536 l-256 -1 ZM349 503 q0 -149 31.5 -217.5 q31.5 -68.5 117.5 -68.5 q87 0 128 76 l0 492 q-42 81 -127 81 q-84 0 -117 -69 q-33 -69 -33 -223 l0 -71 Z" /><glyph glyph-name="e" unicode="e" d="M907 142 q-43 -58 -135.5 -110 q-92.5 -52 -231.5 -52 q-221 0 -341.5 132 q-120.5 132 -120.5 367 l0 89 q0 263 114.5 398.5 q114.5 135.5 318.5 135.5 q412 0 412 -526 l0 -129 l-561 0 q5 -129 55.5 -180.5 q50.5 -51.5 141.5 -51.5 q143 0 236 98 l112 -171 ZM510 867 q-74 0 -107.5 -52.5 q-33.5 -52.5 -39.5 -169.5 l283 0 l0 25 q-2 98 -32 147.5 q-30 49.5 -104 49.5 Z" /><glyph glyph-name="f" unicode="f" d="M621 869 l-169 0 l0 -869 l-283 0 l0 869 l-131 0 l0 213 l131 0 l0 94 q0 185 94.5 283 q94.5 98 257.5 98 q61 0 128 -20 l-2 -225 q-29 8 -69 8 q-126 0 -126 -144 l0 -94 l169 0 l0 -213 Z" /><glyph glyph-name="g" unicode="g" d="M928 0 q0 -223 -124 -324.5 q-124 -101.5 -326 -101.5 q-75 0 -175.5 31.5 q-100.5 31.5 -157.5 93.5 l95 196 q39 -39 101.5 -66.5 q62.5 -27.5 124.5 -27.5 q86 0 132 42.5 q46 42.5 46 155.5 l0 87 q-82 -106 -211 -106 q-171 0 -267.5 134.5 q-96.5 134.5 -96.5 388.5 l0 71 q0 266 96.5 397 q96.5 131 269.5 131 q147 0 226 -115 l11 95 l256 0 l0 -1082 ZM352 503 q0 -286 163 -286 q87 0 129 63 l0 518 q-43 68 -127 68 q-84 0 -124.5 -69 q-40.5 -69 -40.5 -223 l0 -71 Z" /><glyph glyph-name="h" unicode="h" d="M500 866 q-80 0 -121 -73 l0 -793 l-283 0 l0 1536 l283 0 l0 -549 q92 115 227 115 q134 0 218 -95 q84 -95 84 -325 l0 -682 l-283 0 l0 684 q0 104 -31.5 143 q-31.5 39 -93.5 39 Z" /><glyph glyph-name="i" unicode="i" d="M103 1362 q0 66 42 108.5 q42 42.5 113 42.5 q70 0 112 -42.5 q42 -42.5 42 -108.5 q0 -65 -42 -107.5 q-42 -42.5 -112 -42.5 q-71 0 -113 42.5 q-42 42.5 -42 107.5 ZM400 1082 l0 -1082 l-284 0 l0 1082 l284 0 Z" /><glyph glyph-name="j" unicode="j" d="M98 1362 q0 66 42 108.5 q42 42.5 112 42.5 q71 0 113 -42.5 q42 -42.5 42 -108.5 q0 -65 -42 -107.5 q-42 -42.5 -113 -42.5 q-70 0 -112 42.5 q-42 42.5 -42 107.5 ZM117 1082 l284 0 l0 -1141 q0 -183 -85.5 -280.5 q-85.5 -97.5 -239.5 -97.5 q-68 0 -130 17 l0 230 q45 -8 76 -8 q95 0 95 139 l0 1141 Z" /><glyph glyph-name="k" unicode="k" d="M660 0 l-197 419 l-77 -86 l0 -333 l-283 0 l0 1537 l283 0 l0 -830 l35 51 l197 324 l337 0 l-314 -445 l343 -637 l-324 0 Z" /><glyph glyph-name="l" unicode="l" d="M400 1536 l0 -1536 l-284 0 l0 1536 l284 0 Z" /><glyph glyph-name="m" unicode="m" d="M503 866 q-74 0 -115 -77 l0 -789 l-283 0 l0 1082 l265 0 l8 -100 q94 120 250 120 q75 0 134.5 -34.5 q59.5 -34.5 95.5 -110.5 q93 145 264 145 q131 0 211 -93 q80 -93 80 -320 l0 -689 l-283 0 l0 689 q0 108 -30 142.5 q-30 34.5 -84 34.5 q-80 0 -117 -98 q1 -22 1 -46 l0 -722 l-282 0 l0 687 q0 107 -30 143 q-30 36 -85 36 Z" /><glyph glyph-name="n" unicode="n" d="M500 866 q-77 0 -120 -80 l0 -786 l-283 0 l0 1082 l265 0 l8 -106 q97 126 252 126 q127 0 206.5 -92 q79.5 -92 79.5 -322 l0 -688 l-283 0 l0 690 q0 103 -31.5 139.5 q-31.5 36.5 -93.5 36.5 Z" /><glyph glyph-name="o" unicode="o" d="M71 505 l0 71 q0 255 118.5 390.5 q118.5 135.5 318.5 135.5 q202 0 320.5 -135.5 q118.5 -135.5 118.5 -390.5 l0 -71 q0 -255 -118.5 -390 q-118.5 -135 -318.5 -135 q-201 0 -320 135 q-119 135 -119 390 ZM354 576 l0 -71 q0 -290 156 -290 q154 0 154 290 l0 71 q0 291 -156 291 q-154 0 -154 -291 Z" /><glyph glyph-name="p" unicode="p" d="M599 -20 q-131 0 -213 108 l0 -504 l-282 0 l0 1498 l261 0 l10 -99 q83 119 222 119 q350 0 350 -524 l0 -71 q0 -254 -87.5 -390.5 q-87.5 -136.5 -260.5 -136.5 ZM513 866 q-88 0 -127 -75 l0 -504 q39 -72 129 -72 q84 0 116.5 71 q32.5 71 32.5 221 l0 71 q0 154 -34 221 q-34 67 -117 67 Z" /><glyph glyph-name="q" unicode="q" d="M910 1082 l0 -1498 l-284 0 l0 501 q-81 -105 -209 -105 q-173 0 -262 135.5 q-89 135.5 -89 390.5 l0 71 q0 525 352 525 q143 0 227 -127 l17 107 l248 0 ZM349 506 q0 -150 32.5 -220.5 q32.5 -70.5 117.5 -70.5 q87 0 127 69 l0 512 q-40 71 -126 71 q-84 0 -117.5 -68.5 q-33.5 -68.5 -33.5 -221.5 l0 -71 Z" /><glyph glyph-name="r" unicode="r" d="M544 817 q-118 0 -158 -101 l0 -716 l-283 0 l0 1082 l267 0 l8 -117 q68 137 185 137 q46 0 77 -12 l-3 -281 q-50 8 -93 8 Z" /><glyph glyph-name="s" unicode="s" d="M582 290 q0 42 -43 74 q-43 32 -144 76 q-148 58 -227.5 132 q-79.5 74 -79.5 204 q0 135 99 230.5 q99 95.5 275 95.5 q182 0 287 -93.5 q105 -93.5 105 -245.5 l-283 0 q0 133 -110 133 q-102 0 -102 -106 q0 -42 39.5 -71 q39.5 -29 143.5 -72 q162 -61 238.5 -136 q76.5 -75 76.5 -209 q0 -144 -107 -233 q-107 -89 -288 -89 q-196 0 -299.5 111.5 q-103.5 111.5 -103.5 243.5 l268 0 q2 -88 41 -118 q39 -30 100 -30 q114 0 114 103 Z" /><glyph glyph-name="t" unicode="t" d="M583 7 q-33 -13 -70 -20 q-37 -7 -87 -7 q-126 0 -201 74 q-75 74 -75 247 l0 568 l-126 0 l0 213 l126 0 l0 267 l282 0 l0 -267 l145 0 l0 -213 l-145 0 l0 -537 q0 -68 19.5 -90 q19.5 -22 65.5 -22 q39 0 67 8 l-1 -221 Z" /><glyph glyph-name="u" unicode="u" d="M643 0 l-7 100 q-88 -120 -237 -120 q-134 0 -218 94 q-84 94 -84 308 l0 700 l283 0 l0 -702 q0 -88 29 -125.5 q29 -37.5 75 -37.5 q98 0 141 84 l0 781 l284 0 l0 -1082 l-266 0 Z" /><glyph glyph-name="v" unicode="v" d="M891 1082 l-297 -1082 l-271 0 l-297 1082 l296 0 l138 -681 l136 681 l295 0 Z" /><glyph glyph-name="w" unicode="w" d="M1260 1082 l-224 -1082 l-236 0 l-153 625 l-153 -625 l-235 0 l-225 1082 l272 0 l97 -605 l143 605 l202 0 l144 -606 l96 606 l272 0 Z" /><glyph glyph-name="x" unicode="x" d="M345 1082 l121 -320 l125 320 l300 0 l-246 -529 l256 -553 l-301 0 l-133 339 l-132 -339 l-303 0 l256 553 l-245 529 l302 0 Z" /><glyph glyph-name="y" unicode="y" d="M540 -162 q-16 -54 -48.5 -118.5 q-32.5 -64.5 -93 -110.5 q-60.5 -46 -159.5 -46 q-37 0 -59.5 4.5 q-22.5 4.5 -56.5 14.5 l0 220 q9 0 17 -0.5 q8 -0.5 17 -0.5 q69 0 101 27.5 q32 27.5 48 86.5 l23 75 l-312 1092 l303 0 l131 -610 l143 610 l302 0 l-356 -1244 Z" /><glyph glyph-name="z" unicode="z" d="M91 847 l0 235 l747 0 l0 -171 l-422 -676 l428 0 l0 -235 l-764 0 l0 177 l420 670 l-409 0 Z" /><glyph glyph-name="braceleft" unicode="{" d="M194 309 q0 94 -32.5 150 q-32.5 56 -105.5 56 l0 208 q73 0 105.5 55.5 q32.5 55.5 32.5 150.5 l0 203 q0 158 66 282.5 q66 124.5 243 182.5 l53 -162 q-67 -32 -88.5 -114.5 q-21.5 -82.5 -21.5 -188.5 l0 -203 q0 -99 -38 -181 q-38 -82 -121 -129 q83 -47 121 -129 q38 -82 38 -181 l0 -203 q0 -106 21 -188.5 q21 -82.5 88 -114.5 l-52 -163 q-177 58 -243 183 q-66 125 -66 283 l0 203 Z" /><glyph glyph-name="bar" unicode="|" d="M349 1456 l0 -1726 l-175 0 l0 1726 l175 0 Z" /><glyph glyph-name="braceright" unicode="}" d="M417 929 q0 -95 32 -150.5 q32 -55.5 105 -55.5 l0 -208 q-73 0 -105 -56 q-32 -56 -32 -150 l0 -203 q0 -158 -66 -283 q-66 -125 -243 -183 l-53 163 q67 32 88 114.5 q21 82.5 21 188.5 l0 203 q0 101 39 182.5 q39 81.5 124 127.5 q-85 46 -124 127.5 q-39 81.5 -39 182.5 l0 203 q0 106 -21.5 188.5 q-21.5 82.5 -88.5 114.5 l54 162 q177 -58 243 -182.5 q66 -124.5 66 -282.5 l0 -203 Z" /><glyph glyph-name="asciitilde" unicode="~" d="M835 795 l206 -1 q0 -190 -83 -304.5 q-83 -114.5 -207 -114.5 q-67 0 -120 32 q-53 32 -111 100 q-61 83 -117 83 q-43 0 -69 -50.5 q-26 -50.5 -26 -126.5 l-208 2 q0 193 82 303 q82 110 206 110 q123 0 233 -131 q60 -83 115 -83 q42 0 70.5 52 q28.5 52 28.5 129 Z" /><glyph glyph-name="cent" unicode="¢" d="M913 375 q-1 -146 -82 -250 q-81 -104 -208 -134 l0 -236 l-191 0 l0 235 q-169 35 -251.5 184.5 q-82.5 149.5 -82.5 352.5 l0 28 q0 203 82.5 352.5 q82.5 149.5 251.5 184.5 l0 226 l191 0 l0 -226 q133 -29 211 -137.5 q78 -108.5 79 -276.5 l-265 0 q-1 79 -30.5 134 q-29.5 55 -96.5 55 q-93 0 -116.5 -95.5 q-23.5 -95.5 -23.5 -216.5 l0 -28 q0 -125 23.5 -218.5 q23.5 -93.5 118.5 -93.5 q59 0 91.5 43.5 q32.5 43.5 33.5 116.5 l265 0 Z" /><glyph glyph-name="sterling" unicode="£" d="M107 0 l0 244 l73 0 q38 12 46.5 65.5 q8.5 53.5 9.5 111.5 l-4 155 l-128 0 l0 237 l122 0 l-6 226 q0 207 109.5 321.5 q109.5 114.5 285.5 114.5 q190 0 292.5 -114.5 q102.5 -114.5 102.5 -302.5 l-280 0 q0 97 -34.5 135 q-34.5 38 -80.5 38 q-43 0 -72.5 -48 q-29.5 -48 -29.5 -144 l8 -226 l250 0 l0 -237 l-242 0 l5 -137 q0 -123 -56 -195 l535 0 l-1 -244 l-905 0 Z" /><glyph glyph-name="yen" unicode="¥" d="M854 278 l-224 0 l0 -278 l-294 0 l0 278 l-243 0 l0 174 l243 0 l0 115 l-243 0 l0 175 l197 0 l-265 714 l307 0 l156 -496 l155 496 l305 0 l-263 -714 l169 0 l0 -175 l-224 0 l0 -115 l224 0 l0 -174 Z" /><glyph glyph-name="dieresis" unicode="¨" d="M95 1366 q0 53 39 90 q39 37 100 37 q60 0 99.5 -37 q39.5 -37 39.5 -90 q0 -54 -39.5 -90.5 q-39.5 -36.5 -99.5 -36.5 q-61 0 -100 36.5 q-39 36.5 -39 90.5 ZM584 1365 q0 54 39 91 q39 37 100 37 q60 0 99.5 -37 q39.5 -37 39.5 -91 q0 -53 -39.5 -90 q-39.5 -37 -99.5 -37 q-61 0 -100 37 q-39 37 -39 90 Z" /><glyph glyph-name="copyright" unicode="©" d="M87 729 q0 211 96 380.5 q96 169.5 257 268 q161 98.5 357 98.5 q195 0 356 -98.5 q161 -98.5 257 -268 q96 -169.5 96 -380.5 q0 -211 -96 -381 q-96 -170 -257 -269 q-161 -99 -356 -99 q-196 0 -357 99 q-161 99 -257 269 q-96 170 -96 381 ZM209 729 q0 -177 79.5 -318 q79.5 -141 212.5 -223.5 q133 -82.5 296 -82.5 q162 0 295.5 82.5 q133.5 82.5 212.5 223.5 q79 141 79 318 q0 177 -79 317.5 q-79 140.5 -212.5 222.5 q-133.5 82 -295.5 82 q-163 0 -296 -82 q-133 -82 -212.5 -222.5 q-79.5 -140.5 -79.5 -317.5 ZM962 596 l156 0 q0 -158 -90 -236 q-90 -78 -245 -78 q-161 0 -255 107 q-94 107 -94 280 l0 119 q0 172 94 279.5 q94 107.5 255 107.5 q155 0 245.5 -78.5 q90.5 -78.5 90.5 -235.5 l-156 0 q0 179 -180 179 q-96 0 -145.5 -70.5 q-49.5 -70.5 -49.5 -180.5 l0 -120 q0 -112 49.5 -182 q49.5 -70 145.5 -70 q89 0 134 40.5 q45 40.5 45 138.5 Z" /><glyph glyph-name="guillemotleft" unicode="«" d="M305 125 l-233 390 l0 19 l233 390 l176 0 l-193 -400 l193 -399 l-176 0 ZM647 125 l-233 390 l0 19 l233 390 l176 0 l-193 -400 l193 -399 l-176 0 Z" /><glyph glyph-name="registered" unicode="®" d="M87 729 q0 211 96 380.5 q96 169.5 257 268 q161 98.5 357 98.5 q195 0 356 -98.5 q161 -98.5 257 -268 q96 -169.5 96 -380.5 q0 -211 -96 -381 q-96 -170 -257 -269 q-161 -99 -356 -99 q-196 0 -357 99 q-161 99 -257 269 q-96 170 -96 381 ZM209 729 q0 -177 79.5 -318 q79.5 -141 212.5 -223.5 q133 -82.5 296 -82.5 q162 0 295.5 82.5 q133.5 82.5 212.5 223.5 q79 141 79 318 q0 177 -79 317.5 q-79 140.5 -212.5 222.5 q-133.5 82 -295.5 82 q-163 0 -296 -82 q-133 -82 -212.5 -222.5 q-79.5 -140.5 -79.5 -317.5 ZM811 653 l-158 0 l0 -337 l-151 0 l0 850 l281 0 q149 0 237 -66.5 q88 -66.5 88 -195.5 q0 -112 -111 -174 q60 -31 84 -87.5 q24 -56.5 24 -127.5 l0 -56 q0 -37 3.5 -71 q3.5 -34 13.5 -56 l0 -16 l-155 0 q-10 26 -11.5 74 q-1.5 48 -1.5 70 l0 54 q0 139 -143 139 ZM653 1033 l0 -246 l135 0 q68 1 119 30 q51 29 51 86 q0 73 -39 101.5 q-39 28.5 -136 28.5 l-130 0 Z" /><glyph glyph-name="acute" unicode="´" d="M101 1227 l197 309 l317 0 l-277 -309 l-237 0 Z" /><glyph glyph-name="cedilla" unicode="¸" d="M124 8 l210 0 l-9 -59 q45 -10 83 -48.5 q38 -38.5 38 -124.5 q0 -107 -77 -173 q-77 -66 -228 -66 l-6 168 q74 0 74 81 q0 41 -25.5 57 q-25.5 16 -86.5 21 l27 144 Z" /><glyph glyph-name="guillemotright" unicode="»" d="M261 923 l233 -390 l0 -19 l-233 -390 l-176 0 l192 400 l-192 399 l176 0 ZM609 923 l233 -390 l0 -19 l-233 -390 l-176 0 l192 400 l-192 399 l176 0 Z" /><glyph glyph-name="AE" unicode="æ" d="M1602 238 l0 -238 l-777 0 l-12 334 l-334 0 l-132 -334 l-331 0 l642 1456 l893 0 l0 -238 l-486 0 l13 -351 l405 0 l0 -238 l-397 0 l14 -391 l502 0 ZM577 582 l228 0 l-19 527 l-209 -527 Z" /><glyph glyph-name="ae" unicode="æ" d="M1408 101 q-44 -41 -136.5 -81 q-92.5 -40 -208.5 -40 q-204 0 -323 136 q-47 -54 -127.5 -95 q-80.5 -41 -196.5 -41 q-167 0 -255.5 92.5 q-88.5 92.5 -88.5 247.5 q0 158 108.5 244 q108.5 86 318.5 86 l116 0 l0 56 q0 161 -110 161 q-56 0 -88 -36 q-32 -36 -32 -86 l-283 19 q0 147 111 242.5 q111 95.5 295 95.5 q171 0 270 -93 q106 94 265 93 q183 0 286 -132 q103 -132 103 -358 l0 -163 l-540 0 q8 -102 55.5 -168 q47.5 -66 146.5 -66 q88 0 140.5 23.5 q52.5 23.5 101.5 52.5 l72 -190 ZM1043 867 q-74 0 -108 -62 q-34 -62 -42 -160 l262 0 l0 27 q0 88 -26.5 141.5 q-26.5 53.5 -85.5 53.5 ZM471 194 q35 0 74.5 19.5 q39.5 19.5 69.5 47.5 l0 200 l-114 0 q-71 0 -109 -44.5 q-38 -44.5 -38 -100.5 q0 -122 117 -122 Z" /><glyph glyph-name="OE" unicode="&#x152;" d="M1611 244 l0 -244 l-754 0 q-54 -8 -113.5 -14 q-59.5 -6 -121.5 -6 q-233 0 -378 165.5 q-145 165.5 -145 430.5 l0 304 q0 265 144.5 430.5 q144.5 165.5 377.5 165.5 q61 0 121.5 -6 q60.5 -6 114.5 -14 l752 0 l0 -245 l-540 0 l0 -344 l458 0 l0 -237 l-458 0 l0 -386 l542 0 ZM381 576 q0 -180 65 -270.5 q65 -90.5 176 -90.5 q76 0 153 12 l0 1002 q-81 12 -154 12 q-111 0 -175.5 -89.5 q-64.5 -89.5 -64.5 -269.5 l0 -306 Z" /><glyph glyph-name="oe" unicode="&#x153;" d="M1477 104 q-49 -47 -139.5 -85.5 q-90.5 -38.5 -211.5 -38.5 q-186 0 -304 127 q-114 -127 -298 -127 q-213 0 -324.5 157 q-111.5 157 -111.5 393 l0 21 q0 236 111 393.5 q111 157.5 323 157.5 q183 0 298 -125 q110 126 280 125 q194 0 294.5 -133 q100.5 -133 100.5 -356 l0 -164 l-525 0 q9 -98 53 -166 q44 -68 133 -68 q88 0 140.5 22.5 q52.5 22.5 105.5 54.5 l75 -188 ZM1100 867 q-61 0 -90.5 -62.5 q-29.5 -62.5 -38.5 -157.5 l246 0 l0 26 q0 86 -25.5 140 q-25.5 54 -91.5 54 ZM371 551 l0 -21 q0 -131 31 -223 q31 -92 122 -92 q88 0 119.5 92 q31.5 92 31.5 223 l0 21 q0 128 -31.5 222 q-31.5 94 -121.5 94 q-88 0 -119.5 -94 q-31.5 -94 -31.5 -222 Z" /><glyph glyph-name="circumflex" unicode="&#x2c6;" d="M541 1537 l264 -280 l0 -12 l-220 0 l-125 143 l-125 -143 l-217 0 l0 15 l261 277 l162 0 Z" /><glyph glyph-name="ring" unicode="&#x2da;" d="M120 1323 q0 84 63 144.5 q63 60.5 160 60.5 q96 0 159.5 -60.5 q63.5 -60.5 63.5 -144.5 q0 -84 -63.5 -142.5 q-63.5 -58.5 -159.5 -58.5 q-97 0 -160 58.5 q-63 58.5 -63 142.5 ZM235 1323 q0 -43 29.5 -74.5 q29.5 -31.5 78.5 -31.5 q49 0 78.5 31.5 q29.5 31.5 29.5 74.5 q0 44 -29.5 76.5 q-29.5 32.5 -78.5 32.5 q-49 0 -78.5 -32.5 q-29.5 -32.5 -29.5 -76.5 Z" /><glyph glyph-name="tilde" unicode="&#x2dc;" d="M615 1536 l160 -11 q0 -110 -56 -188.5 q-56 -78.5 -144 -78.5 q-78 0 -120.5 43 q-42.5 43 -107.5 43 q-64 0 -64 -95 l-160 10 q0 107 56 187.5 q56 80.5 142 80.5 q63 0 115 -43 q52 -43 114 -43 q65 0 65 95 Z" /><glyph glyph-name="endash" unicode="&#x2013;" d="M1027 833 l0 -238 l-877 0 l0 238 l877 0 Z" /><glyph glyph-name="emdash" unicode="&#x2014;" d="M1291 833 l0 -238 l-1170 0 l0 238 l1170 0 Z" /><glyph glyph-name="quoteleft" unicode="&#x2018;" d="M108 1048 l0 152 q0 98 49 202 q49 104 117 169 l130 -79 q-29 -59 -51.5 -128.5 q-22.5 -69.5 -22.5 -163.5 l0 -152 l-222 0 Z" /><glyph glyph-name="quoteright" unicode="&#x2019;" d="M363 1536 l0 -155 q0 -98 -49.5 -202.5 q-49.5 -104.5 -116.5 -169.5 l-130 79 q29 60 51.5 129.5 q22.5 69.5 22.5 163.5 l0 155 l222 0 Z" /><glyph glyph-name="quotesinglbase" unicode="&#x201a;" d="M377 231 l-1 -165 q0 -98 -49 -202.5 q-49 -104.5 -117 -169.5 l-130 79 q29 60 47.5 129.5 q18.5 69.5 18.5 163.5 l0 165 l231 0 Z" /><glyph glyph-name="quotedblleft" unicode="&#x201c;" d="M117 1048 l0 152 q0 98 49 202 q49 104 117 169 l130 -79 q-29 -59 -51.5 -128.5 q-22.5 -69.5 -22.5 -163.5 l0 -152 l-222 0 ZM431 1048 l0 152 q0 98 49 202 q49 104 117 169 l130 -79 q-29 -59 -51.5 -128.5 q-22.5 -69.5 -22.5 -163.5 l0 -152 l-222 0 Z" /><glyph glyph-name="quotedblright" unicode="&#x201d;" d="M377 1536 l0 -155 q0 -98 -49.5 -202.5 q-49.5 -104.5 -116.5 -169.5 l-130 79 q29 60 51.5 129.5 q22.5 69.5 22.5 163.5 l0 155 l222 0 ZM696 1536 l0 -155 q0 -98 -49.5 -202.5 q-49.5 -104.5 -116.5 -169.5 l-130 79 q29 60 51.5 129.5 q22.5 69.5 22.5 163.5 l0 155 l222 0 Z" /><glyph glyph-name="quotedblbase" unicode="&#x201e;" d="M377 264 l-1 -198 q0 -104 -45 -214 q-45 -110 -113 -178 l-138 79 q29 64 47.5 138.5 q18.5 74.5 18.5 174.5 l0 198 l231 0 ZM694 264 l-1 -198 q0 -104 -49.5 -214 q-49.5 -110 -116.5 -178 l-138 79 q30 64 52 138.5 q22 74.5 22 174.5 l0 198 l231 0 Z" /><glyph glyph-name="ellipsis" unicode="&#x2026;" d="M127 144 q0 67 44.5 111.5 q44.5 44.5 120.5 44.5 q75 0 119.5 -44.5 q44.5 -44.5 44.5 -111.5 q0 -66 -44.5 -110.5 q-44.5 -44.5 -119.5 -44.5 q-76 0 -120.5 44.5 q-44.5 44.5 -44.5 110.5 ZM540 144 q0 67 44.5 111.5 q44.5 44.5 120.5 44.5 q75 0 119.5 -44.5 q44.5 -44.5 44.5 -111.5 q0 -66 -44.5 -110.5 q-44.5 -44.5 -119.5 -44.5 q-76 0 -120.5 44.5 q-44.5 44.5 -44.5 110.5 ZM946 144 q0 67 44.5 111.5 q44.5 44.5 120.5 44.5 q75 0 119.5 -44.5 q44.5 -44.5 44.5 -111.5 q0 -66 -44.5 -110.5 q-44.5 -44.5 -119.5 -44.5 q-76 0 -120.5 44.5 q-44.5 44.5 -44.5 110.5 Z" /><glyph glyph-name="guilsinglleft" unicode="&#x2039;" d="M344 125 l-233 390 l0 19 l233 390 l176 0 l-193 -400 l193 -399 l-176 0 Z" /><glyph glyph-name="guilsinglright" unicode="&#x203a;" d="M260 923 l233 -390 l0 -19 l-233 -390 l-176 0 l192 400 l-192 399 l176 0 Z" /><glyph glyph-name="Euro" unicode="&#x20ac;" d="M948 11 q-107 -30 -221 -30 q-210 0 -348 134.5 q-138 134.5 -145 400.5 l-136 0 l0 152 l136 0 l0 125 l-136 0 l0 152 l138 0 q16 262 156 396 q140 134 356 134 q51 0 101 -8.5 q50 -8.5 99 -22.5 l-36 -245 q-72 32 -148 32 q-103 0 -163 -66.5 q-60 -66.5 -70 -219.5 l258 0 l0 -152 l-260 0 l0 -125 l260 0 l0 -152 l-260 0 q5 -167 67.5 -229.5 q62.5 -62.5 161.5 -62.5 q85 0 154 31 l36 -244 Z" /><glyph glyph-name="trademark" unicode="&#x2122;" d="M873 915 l0 350 l-84 -350 l-64 0 l-84 352 l0 -352 l-121 0 l0 541 l148 0 l89 -367 l97 367 l139 0 l0 -541 l-120 0 ZM464 1456 l0 -108 l-102 0 l0 -430 l-134 0 l0 430 l-109 0 l0 108 l345 0 Z" /><glyph glyph-name="Agrave" unicode="à" d="M22 0 l455 1456 l269 0 l458 -1456 l-313 0 l-78 298 l-401 0 l-78 -298 l-312 0 ZM476 543 l273 0 l-137 520 l-136 -520 ZM562 1846 l198 -309 l-239 0 l-277 309 l318 0 Z" /><glyph glyph-name="Aacute" unicode="á" d="M22 0 l455 1456 l269 0 l458 -1456 l-313 0 l-78 298 l-401 0 l-78 -298 l-312 0 ZM476 543 l273 0 l-137 520 l-136 -520 ZM476 1537 l197 309 l317 0 l-277 -309 l-237 0 Z" /><glyph glyph-name="Acircumflex" unicode="â" d="M22 0 l455 1456 l269 0 l458 -1456 l-313 0 l-78 298 l-401 0 l-78 -298 l-312 0 ZM476 543 l273 0 l-137 520 l-136 -520 ZM697 1847 l264 -280 l0 -12 l-220 0 l-125 143 l-125 -143 l-217 0 l0 15 l261 277 l162 0 Z" /><glyph glyph-name="Adieresis" unicode="ä" d="M22 0 l455 1456 l269 0 l458 -1456 l-313 0 l-78 298 l-401 0 l-78 -298 l-312 0 ZM476 543 l273 0 l-137 520 l-136 -520 ZM231 1676 q0 53 39 90 q39 37 100 37 q60 0 99.5 -37 q39.5 -37 39.5 -90 q0 -54 -39.5 -90.5 q-39.5 -36.5 -99.5 -36.5 q-61 0 -100 36.5 q-39 36.5 -39 90.5 ZM720 1675 q0 54 39 91 q39 37 100 37 q60 0 99.5 -37 q39.5 -37 39.5 -91 q0 -53 -39.5 -90 q-39.5 -37 -99.5 -37 q-61 0 -100 37 q-39 37 -39 90 Z" /><glyph glyph-name="Ccedilla" unicode="ç" d="M810 486 l294 0 q-10 -248 -140 -377 q-130 -129 -364 -129 q-242 0 -375.5 160 q-133.5 160 -133.5 464 l0 247 q0 305 137.5 465.5 q137.5 160.5 375.5 160.5 q238 0 362 -133.5 q124 -133.5 140 -381.5 l-294 0 q-5 156 -49 213.5 q-44 57.5 -159 57.5 q-116 0 -167.5 -85 q-51.5 -85 -51.5 -295 l0 -249 q0 -206 45 -293 q45 -87 170 -87 q109 0 157 52 q48 52 53 210 ZM495 5 l210 0 l-9 -59 q45 -10 83 -48.5 q38 -38.5 38 -124.5 q0 -107 -77 -173 q-77 -66 -228 -66 l-6 168 q74 0 74 81 q0 41 -25.5 57 q-25.5 16 -86.5 21 l27 144 Z" /><glyph glyph-name="Egrave" unicode="è" d="M117 0 l0 1456 l834 0 l0 -245 l-539 0 l0 -344 l457 0 l0 -237 l-457 0 l0 -386 l541 0 l0 -244 l-836 0 ZM503 1849 l198 -309 l-239 0 l-277 309 l318 0 Z" /><glyph glyph-name="Eacute" unicode="é" d="M117 0 l0 1456 l834 0 l0 -245 l-539 0 l0 -344 l457 0 l0 -237 l-457 0 l0 -386 l541 0 l0 -244 l-836 0 ZM417 1540 l197 309 l317 0 l-277 -309 l-237 0 Z" /><glyph glyph-name="Ecircumflex" unicode="ê" d="M117 0 l0 1456 l834 0 l0 -245 l-539 0 l0 -344 l457 0 l0 -237 l-457 0 l0 -386 l541 0 l0 -244 l-836 0 ZM638 1850 l264 -280 l0 -12 l-220 0 l-125 143 l-125 -143 l-217 0 l0 15 l261 277 l162 0 Z" /><glyph glyph-name="Edieresis" unicode="ë" d="M117 0 l0 1456 l834 0 l0 -245 l-539 0 l0 -344 l457 0 l0 -237 l-457 0 l0 -386 l541 0 l0 -244 l-836 0 ZM172 1679 q0 53 39 90 q39 37 100 37 q60 0 99.5 -37 q39.5 -37 39.5 -90 q0 -54 -39.5 -90.5 q-39.5 -36.5 -99.5 -36.5 q-61 0 -100 36.5 q-39 36.5 -39 90.5 ZM661 1678 q0 54 39 91 q39 37 100 37 q60 0 99.5 -37 q39.5 -37 39.5 -91 q0 -53 -39.5 -90 q-39.5 -37 -99.5 -37 q-61 0 -100 37 q-39 37 -39 90 Z" /><glyph glyph-name="Igrave" unicode="ì" d="M424 1456 l0 -1456 l-294 0 l0 1456 l294 0 ZM223 1849 l198 -309 l-239 0 l-277 309 l318 0 Z" /><glyph glyph-name="Iacute" unicode="í" d="M424 1456 l0 -1456 l-294 0 l0 1456 l294 0 ZM137 1540 l197 309 l317 0 l-277 -309 l-237 0 Z" /><glyph glyph-name="Icircumflex" unicode="î" d="M424 1456 l0 -1456 l-294 0 l0 1456 l294 0 ZM358 1850 l264 -280 l0 -12 l-220 0 l-125 143 l-125 -143 l-217 0 l0 15 l261 277 l162 0 Z" /><glyph glyph-name="Idieresis" unicode="ï" d="M424 1456 l0 -1456 l-294 0 l0 1456 l294 0 ZM-108 1679 q0 53 39 90 q39 37 100 37 q60 0 99.5 -37 q39.5 -37 39.5 -90 q0 -54 -39.5 -90.5 q-39.5 -36.5 -99.5 -36.5 q-61 0 -100 36.5 q-39 36.5 -39 90.5 ZM381 1678 q0 54 39 91 q39 37 100 37 q60 0 99.5 -37 q39.5 -37 39.5 -91 q0 -53 -39.5 -90 q-39.5 -37 -99.5 -37 q-61 0 -100 37 q-39 37 -39 90 Z" /><glyph glyph-name="Ograve" unicode="ò" d="M1142 840 l0 -242 q0 -308 -144 -463 q-144 -155 -379 -155 q-234 0 -380 155 q-146 155 -146 463 l0 242 q0 315 145 475.5 q145 160.5 379 160.5 q235 0 380 -160.5 q145 -160.5 145 -475.5 ZM848 598 l0 244 q0 208 -59 298 q-59 90 -172 90 q-113 0 -171.5 -90 q-58.5 -90 -58.5 -298 l0 -244 q0 -198 59.5 -285.5 q59.5 -87.5 172.5 -87.5 q113 0 171 87.5 q58 87.5 58 285.5 ZM565 1846 l198 -309 l-239 0 l-277 309 l318 0 Z" /><glyph glyph-name="Oacute" unicode="ó" d="M1142 840 l0 -242 q0 -308 -144 -463 q-144 -155 -379 -155 q-234 0 -380 155 q-146 155 -146 463 l0 242 q0 315 145 475.5 q145 160.5 379 160.5 q235 0 380 -160.5 q145 -160.5 145 -475.5 ZM848 598 l0 244 q0 208 -59 298 q-59 90 -172 90 q-113 0 -171.5 -90 q-58.5 -90 -58.5 -298 l0 -244 q0 -198 59.5 -285.5 q59.5 -87.5 172.5 -87.5 q113 0 171 87.5 q58 87.5 58 285.5 ZM479 1537 l197 309 l317 0 l-277 -309 l-237 0 Z" /><glyph glyph-name="Ocircumflex" unicode="ô" d="M1142 840 l0 -242 q0 -308 -144 -463 q-144 -155 -379 -155 q-234 0 -380 155 q-146 155 -146 463 l0 242 q0 315 145 475.5 q145 160.5 379 160.5 q235 0 380 -160.5 q145 -160.5 145 -475.5 ZM848 598 l0 244 q0 208 -59 298 q-59 90 -172 90 q-113 0 -171.5 -90 q-58.5 -90 -58.5 -298 l0 -244 q0 -198 59.5 -285.5 q59.5 -87.5 172.5 -87.5 q113 0 171 87.5 q58 87.5 58 285.5 ZM700 1847 l264 -280 l0 -12 l-220 0 l-125 143 l-125 -143 l-217 0 l0 15 l261 277 l162 0 Z" /><glyph glyph-name="Odieresis" unicode="ö" d="M1142 840 l0 -242 q0 -308 -144 -463 q-144 -155 -379 -155 q-234 0 -380 155 q-146 155 -146 463 l0 242 q0 315 145 475.5 q145 160.5 379 160.5 q235 0 380 -160.5 q145 -160.5 145 -475.5 ZM848 598 l0 244 q0 208 -59 298 q-59 90 -172 90 q-113 0 -171.5 -90 q-58.5 -90 -58.5 -298 l0 -244 q0 -198 59.5 -285.5 q59.5 -87.5 172.5 -87.5 q113 0 171 87.5 q58 87.5 58 285.5 ZM234 1676 q0 53 39 90 q39 37 100 37 q60 0 99.5 -37 q39.5 -37 39.5 -90 q0 -54 -39.5 -90.5 q-39.5 -36.5 -99.5 -36.5 q-61 0 -100 36.5 q-39 36.5 -39 90.5 ZM723 1675 q0 54 39 91 q39 37 100 37 q60 0 99.5 -37 q39.5 -37 39.5 -91 q0 -53 -39.5 -90 q-39.5 -37 -99.5 -37 q-61 0 -100 37 q-39 37 -39 90 Z" /><glyph glyph-name="Ugrave" unicode="ù" d="M770 1456 l295 0 l0 -999 q0 -253 -135 -365 q-135 -112 -344 -112 q-212 0 -346 112 q-134 112 -134 365 l0 999 l295 0 l0 -999 q0 -143 47.5 -188 q47.5 -45 137.5 -45 q91 0 137.5 45 q46.5 45 46.5 188 l0 999 ZM526 1846 l198 -309 l-239 0 l-277 309 l318 0 Z" /><glyph glyph-name="Uacute" unicode="ú" d="M770 1456 l295 0 l0 -999 q0 -253 -135 -365 q-135 -112 -344 -112 q-212 0 -346 112 q-134 112 -134 365 l0 999 l295 0 l0 -999 q0 -143 47.5 -188 q47.5 -45 137.5 -45 q91 0 137.5 45 q46.5 45 46.5 188 l0 999 ZM440 1537 l197 309 l317 0 l-277 -309 l-237 0 Z" /><glyph glyph-name="Ucircumflex" unicode="û" d="M770 1456 l295 0 l0 -999 q0 -253 -135 -365 q-135 -112 -344 -112 q-212 0 -346 112 q-134 112 -134 365 l0 999 l295 0 l0 -999 q0 -143 47.5 -188 q47.5 -45 137.5 -45 q91 0 137.5 45 q46.5 45 46.5 188 l0 999 ZM661 1847 l264 -280 l0 -12 l-220 0 l-125 143 l-125 -143 l-217 0 l0 15 l261 277 l162 0 Z" /><glyph glyph-name="Udieresis" unicode="ü" d="M770 1456 l295 0 l0 -999 q0 -253 -135 -365 q-135 -112 -344 -112 q-212 0 -346 112 q-134 112 -134 365 l0 999 l295 0 l0 -999 q0 -143 47.5 -188 q47.5 -45 137.5 -45 q91 0 137.5 45 q46.5 45 46.5 188 l0 999 ZM195 1676 q0 53 39 90 q39 37 100 37 q60 0 99.5 -37 q39.5 -37 39.5 -90 q0 -54 -39.5 -90.5 q-39.5 -36.5 -99.5 -36.5 q-61 0 -100 36.5 q-39 36.5 -39 90.5 ZM684 1675 q0 54 39 91 q39 37 100 37 q60 0 99.5 -37 q39.5 -37 39.5 -91 q0 -53 -39.5 -90 q-39.5 -37 -99.5 -37 q-61 0 -100 37 q-39 37 -39 90 Z" /><glyph glyph-name="Yacute" unicode="ý" d="M336 1456 l220 -654 l219 654 l321 0 l-391 -928 l0 -528 l-298 0 l0 528 l-391 928 l320 0 ZM419 1537 l197 309 l317 0 l-277 -309 l-237 0 Z" /><glyph glyph-name="agrave" unicode="à" d="M617 0 q-15 34 -24 84 q-32 -43 -82 -73.5 q-50 -30.5 -124 -30.5 q-131 0 -222.5 88 q-91.5 88 -91.5 235 q0 165 106 261.5 q106 96.5 324 96.5 l76 0 l0 87 q0 133 -98 133 q-106 0 -106 -124 l-283 0 q0 142 107.5 243.5 q107.5 101.5 289.5 101.5 q161 0 267.5 -84 q106.5 -84 106.5 -274 l0 -480 q0 -92 9.5 -149 q9.5 -57 29.5 -98 l0 -17 l-285 0 ZM451 203 q46 0 79 19 q33 19 49 45 l0 225 l-67 0 q-80 0 -118 -49 q-38 -49 -38 -120 q0 -120 95 -120 ZM425 1536 l198 -309 l-239 0 l-277 309 l318 0 Z" /><glyph glyph-name="acircumflex" unicode="â" d="M617 0 q-15 34 -24 84 q-32 -43 -82 -73.5 q-50 -30.5 -124 -30.5 q-131 0 -222.5 88 q-91.5 88 -91.5 235 q0 165 106 261.5 q106 96.5 324 96.5 l76 0 l0 87 q0 133 -98 133 q-106 0 -106 -124 l-283 0 q0 142 107.5 243.5 q107.5 101.5 289.5 101.5 q161 0 267.5 -84 q106.5 -84 106.5 -274 l0 -480 q0 -92 9.5 -149 q9.5 -57 29.5 -98 l0 -17 l-285 0 ZM451 203 q46 0 79 19 q33 19 49 45 l0 225 l-67 0 q-80 0 -118 -49 q-38 -49 -38 -120 q0 -120 95 -120 ZM560 1537 l264 -280 l0 -12 l-220 0 l-125 143 l-125 -143 l-217 0 l0 15 l261 277 l162 0 Z" /><glyph glyph-name="adieresis" unicode="ä" d="M617 0 q-15 34 -24 84 q-32 -43 -82 -73.5 q-50 -30.5 -124 -30.5 q-131 0 -222.5 88 q-91.5 88 -91.5 235 q0 165 106 261.5 q106 96.5 324 96.5 l76 0 l0 87 q0 133 -98 133 q-106 0 -106 -124 l-283 0 q0 142 107.5 243.5 q107.5 101.5 289.5 101.5 q161 0 267.5 -84 q106.5 -84 106.5 -274 l0 -480 q0 -92 9.5 -149 q9.5 -57 29.5 -98 l0 -17 l-285 0 ZM451 203 q46 0 79 19 q33 19 49 45 l0 225 l-67 0 q-80 0 -118 -49 q-38 -49 -38 -120 q0 -120 95 -120 ZM94 1366 q0 53 39 90 q39 37 100 37 q60 0 99.5 -37 q39.5 -37 39.5 -90 q0 -54 -39.5 -90.5 q-39.5 -36.5 -99.5 -36.5 q-61 0 -100 36.5 q-39 36.5 -39 90.5 ZM583 1365 q0 54 39 91 q39 37 100 37 q60 0 99.5 -37 q39.5 -37 39.5 -91 q0 -53 -39.5 -90 q-39.5 -37 -99.5 -37 q-61 0 -100 37 q-39 37 -39 90 Z" /><glyph glyph-name="ccedilla" unicode="ç" d="M495 215 q124 0 124 160 l266 0 q-1 -185 -111.5 -290 q-110.5 -105 -273.5 -105 q-218 0 -324 137 q-106 137 -106 385 l0 78 q0 248 106 385 q106 137 323 137 q174 0 279.5 -108 q105.5 -108 106.5 -316 l-266 0 q0 189 -126 189 q-93 0 -116.5 -74 q-23.5 -74 -23.5 -213 l0 -78 q0 -143 23 -215 q23 -72 119 -72 ZM385 5 l210 0 l-9 -59 q45 -10 83 -48.5 q38 -38.5 38 -124.5 q0 -107 -77 -173 q-77 -66 -228 -66 l-6 168 q74 0 74 81 q0 41 -25.5 57 q-25.5 16 -86.5 21 l27 144 Z" /><glyph glyph-name="egrave" unicode="è" d="M907 142 q-43 -58 -135.5 -110 q-92.5 -52 -231.5 -52 q-221 0 -341.5 132 q-120.5 132 -120.5 367 l0 89 q0 263 114.5 398.5 q114.5 135.5 318.5 135.5 q412 0 412 -526 l0 -129 l-561 0 q5 -129 55.5 -180.5 q50.5 -51.5 141.5 -51.5 q143 0 236 98 l112 -171 ZM510 867 q-74 0 -107.5 -52.5 q-33.5 -52.5 -39.5 -169.5 l283 0 l0 25 q-2 98 -32 147.5 q-30 49.5 -104 49.5 ZM420 1537 l198 -309 l-239 0 l-277 309 l318 0 Z" /><glyph glyph-name="eacute" unicode="é" d="M907 142 q-43 -58 -135.5 -110 q-92.5 -52 -231.5 -52 q-221 0 -341.5 132 q-120.5 132 -120.5 367 l0 89 q0 263 114.5 398.5 q114.5 135.5 318.5 135.5 q412 0 412 -526 l0 -129 l-561 0 q5 -129 55.5 -180.5 q50.5 -51.5 141.5 -51.5 q143 0 236 98 l112 -171 ZM510 867 q-74 0 -107.5 -52.5 q-33.5 -52.5 -39.5 -169.5 l283 0 l0 25 q-2 98 -32 147.5 q-30 49.5 -104 49.5 ZM334 1228 l197 309 l317 0 l-277 -309 l-237 0 Z" /><glyph glyph-name="ecircumflex" unicode="ê" d="M907 142 q-43 -58 -135.5 -110 q-92.5 -52 -231.5 -52 q-221 0 -341.5 132 q-120.5 132 -120.5 367 l0 89 q0 263 114.5 398.5 q114.5 135.5 318.5 135.5 q412 0 412 -526 l0 -129 l-561 0 q5 -129 55.5 -180.5 q50.5 -51.5 141.5 -51.5 q143 0 236 98 l112 -171 ZM510 867 q-74 0 -107.5 -52.5 q-33.5 -52.5 -39.5 -169.5 l283 0 l0 25 q-2 98 -32 147.5 q-30 49.5 -104 49.5 ZM555 1538 l264 -280 l0 -12 l-220 0 l-125 143 l-125 -143 l-217 0 l0 15 l261 277 l162 0 Z" /><glyph glyph-name="edieresis" unicode="ë" d="M907 142 q-43 -58 -135.5 -110 q-92.5 -52 -231.5 -52 q-221 0 -341.5 132 q-120.5 132 -120.5 367 l0 89 q0 263 114.5 398.5 q114.5 135.5 318.5 135.5 q412 0 412 -526 l0 -129 l-561 0 q5 -129 55.5 -180.5 q50.5 -51.5 141.5 -51.5 q143 0 236 98 l112 -171 ZM510 867 q-74 0 -107.5 -52.5 q-33.5 -52.5 -39.5 -169.5 l283 0 l0 25 q-2 98 -32 147.5 q-30 49.5 -104 49.5 ZM89 1367 q0 53 39 90 q39 37 100 37 q60 0 99.5 -37 q39.5 -37 39.5 -90 q0 -54 -39.5 -90.5 q-39.5 -36.5 -99.5 -36.5 q-61 0 -100 36.5 q-39 36.5 -39 90.5 ZM578 1366 q0 54 39 91 q39 37 100 37 q60 0 99.5 -37 q39.5 -37 39.5 -91 q0 -53 -39.5 -90 q-39.5 -37 -99.5 -37 q-61 0 -100 37 q-39 37 -39 90 Z" /><glyph glyph-name="igrave" unicode="ì" d="M408 1082 l0 -1082 l-283 0 l0 1082 l283 0 ZM215 1520 l198 -309 l-239 0 l-277 309 l318 0 Z" /><glyph glyph-name="iacute" unicode="í" d="M408 1082 l0 -1082 l-283 0 l0 1082 l283 0 ZM129 1211 l197 309 l317 0 l-277 -309 l-237 0 Z" /><glyph glyph-name="icircumflex" unicode="î" d="M408 1082 l0 -1082 l-283 0 l0 1082 l283 0 ZM350 1521 l264 -280 l0 -12 l-220 0 l-125 143 l-125 -143 l-217 0 l0 15 l261 277 l162 0 Z" /><glyph glyph-name="idieresis" unicode="ï" d="M408 1082 l0 -1082 l-283 0 l0 1082 l283 0 ZM-116 1350 q0 53 39 90 q39 37 100 37 q60 0 99.5 -37 q39.5 -37 39.5 -90 q0 -54 -39.5 -90.5 q-39.5 -36.5 -99.5 -36.5 q-61 0 -100 36.5 q-39 36.5 -39 90.5 ZM373 1349 q0 54 39 91 q39 37 100 37 q60 0 99.5 -37 q39.5 -37 39.5 -91 q0 -53 -39.5 -90 q-39.5 -37 -99.5 -37 q-61 0 -100 37 q-39 37 -39 90 Z" /><glyph glyph-name="ograve" unicode="ò" d="M71 505 l0 71 q0 255 118.5 390.5 q118.5 135.5 318.5 135.5 q202 0 320.5 -135.5 q118.5 -135.5 118.5 -390.5 l0 -71 q0 -255 -118.5 -390 q-118.5 -135 -318.5 -135 q-201 0 -320 135 q-119 135 -119 390 ZM354 576 l0 -71 q0 -290 156 -290 q154 0 154 290 l0 71 q0 291 -156 291 q-154 0 -154 -291 ZM452 1536 l198 -309 l-239 0 l-277 309 l318 0 Z" /><glyph glyph-name="oacute" unicode="ó" d="M71 505 l0 71 q0 255 118.5 390.5 q118.5 135.5 318.5 135.5 q202 0 320.5 -135.5 q118.5 -135.5 118.5 -390.5 l0 -71 q0 -255 -118.5 -390 q-118.5 -135 -318.5 -135 q-201 0 -320 135 q-119 135 -119 390 ZM354 576 l0 -71 q0 -290 156 -290 q154 0 154 290 l0 71 q0 291 -156 291 q-154 0 -154 -291 ZM366 1227 l197 309 l317 0 l-277 -309 l-237 0 Z" /><glyph glyph-name="ocircumflex" unicode="ô" d="M71 505 l0 71 q0 255 118.5 390.5 q118.5 135.5 318.5 135.5 q202 0 320.5 -135.5 q118.5 -135.5 118.5 -390.5 l0 -71 q0 -255 -118.5 -390 q-118.5 -135 -318.5 -135 q-201 0 -320 135 q-119 135 -119 390 ZM354 576 l0 -71 q0 -290 156 -290 q154 0 154 290 l0 71 q0 291 -156 291 q-154 0 -154 -291 ZM587 1537 l264 -280 l0 -12 l-220 0 l-125 143 l-125 -143 l-217 0 l0 15 l261 277 l162 0 Z" /><glyph glyph-name="odieresis" unicode="ö" d="M71 505 l0 71 q0 255 118.5 390.5 q118.5 135.5 318.5 135.5 q202 0 320.5 -135.5 q118.5 -135.5 118.5 -390.5 l0 -71 q0 -255 -118.5 -390 q-118.5 -135 -318.5 -135 q-201 0 -320 135 q-119 135 -119 390 ZM354 576 l0 -71 q0 -290 156 -290 q154 0 154 290 l0 71 q0 291 -156 291 q-154 0 -154 -291 ZM121 1366 q0 53 39 90 q39 37 100 37 q60 0 99.5 -37 q39.5 -37 39.5 -90 q0 -54 -39.5 -90.5 q-39.5 -36.5 -99.5 -36.5 q-61 0 -100 36.5 q-39 36.5 -39 90.5 ZM610 1365 q0 54 39 91 q39 37 100 37 q60 0 99.5 -37 q39.5 -37 39.5 -91 q0 -53 -39.5 -90 q-39.5 -37 -99.5 -37 q-61 0 -100 37 q-39 37 -39 90 Z" /><glyph glyph-name="ugrave" unicode="ù" d="M643 0 l-7 100 q-88 -120 -237 -120 q-134 0 -218 94 q-84 94 -84 308 l0 700 l283 0 l0 -702 q0 -88 29 -125.5 q29 -37.5 75 -37.5 q98 0 141 84 l0 781 l284 0 l0 -1082 l-266 0 ZM447 1536 l198 -309 l-239 0 l-277 309 l318 0 Z" /><glyph glyph-name="uacute" unicode="ú" d="M643 0 l-7 100 q-88 -120 -237 -120 q-134 0 -218 94 q-84 94 -84 308 l0 700 l283 0 l0 -702 q0 -88 29 -125.5 q29 -37.5 75 -37.5 q98 0 141 84 l0 781 l284 0 l0 -1082 l-266 0 ZM361 1227 l197 309 l317 0 l-277 -309 l-237 0 Z" /><glyph glyph-name="ucircumflex" unicode="û" d="M643 0 l-7 100 q-88 -120 -237 -120 q-134 0 -218 94 q-84 94 -84 308 l0 700 l283 0 l0 -702 q0 -88 29 -125.5 q29 -37.5 75 -37.5 q98 0 141 84 l0 781 l284 0 l0 -1082 l-266 0 ZM582 1537 l264 -280 l0 -12 l-220 0 l-125 143 l-125 -143 l-217 0 l0 15 l261 277 l162 0 Z" /><glyph glyph-name="udieresis" unicode="ü" d="M643 0 l-7 100 q-88 -120 -237 -120 q-134 0 -218 94 q-84 94 -84 308 l0 700 l283 0 l0 -702 q0 -88 29 -125.5 q29 -37.5 75 -37.5 q98 0 141 84 l0 781 l284 0 l0 -1082 l-266 0 ZM116 1366 q0 53 39 90 q39 37 100 37 q60 0 99.5 -37 q39.5 -37 39.5 -90 q0 -54 -39.5 -90.5 q-39.5 -36.5 -99.5 -36.5 q-61 0 -100 36.5 q-39 36.5 -39 90.5 ZM605 1365 q0 54 39 91 q39 37 100 37 q60 0 99.5 -37 q39.5 -37 39.5 -91 q0 -53 -39.5 -90 q-39.5 -37 -99.5 -37 q-61 0 -100 37 q-39 37 -39 90 Z" /><glyph glyph-name="yacute" unicode="ý" d="M540 -162 q-16 -54 -48.5 -118.5 q-32.5 -64.5 -93 -110.5 q-60.5 -46 -159.5 -46 q-37 0 -59.5 4.5 q-22.5 4.5 -56.5 14.5 l0 220 q9 0 17 -0.5 q8 -0.5 17 -0.5 q69 0 101 27.5 q32 27.5 48 86.5 l23 75 l-312 1092 l303 0 l131 -610 l143 610 l302 0 l-356 -1244 ZM319 1227 l197 309 l317 0 l-277 -309 l-237 0 Z" /><glyph glyph-name="ydieresis" unicode="ÿ" d="M540 -162 q-16 -54 -48.5 -118.5 q-32.5 -64.5 -93 -110.5 q-60.5 -46 -159.5 -46 q-37 0 -59.5 4.5 q-22.5 4.5 -56.5 14.5 l0 220 q9 0 17 -0.5 q8 -0.5 17 -0.5 q69 0 101 27.5 q32 27.5 48 86.5 l23 75 l-312 1092 l303 0 l131 -610 l143 610 l302 0 l-356 -1244 ZM74 1366 q0 53 39 90 q39 37 100 37 q60 0 99.5 -37 q39.5 -37 39.5 -90 q0 -54 -39.5 -90.5 q-39.5 -36.5 -99.5 -36.5 q-61 0 -100 36.5 q-39 36.5 -39 90.5 ZM563 1365 q0 54 39 91 q39 37 100 37 q60 0 99.5 -37 q39.5 -37 39.5 -91 q0 -53 -39.5 -90 q-39.5 -37 -99.5 -37 q-61 0 -100 37 q-39 37 -39 90 Z" /><glyph glyph-name="Ydieresis" unicode="&#x178;" d="M336 1456 l220 -654 l219 654 l321 0 l-391 -928 l0 -528 l-298 0 l0 528 l-391 928 l320 0 ZM174 1676 q0 53 39 90 q39 37 100 37 q60 0 99.5 -37 q39.5 -37 39.5 -90 q0 -54 -39.5 -90.5 q-39.5 -36.5 -99.5 -36.5 q-61 0 -100 36.5 q-39 36.5 -39 90.5 ZM663 1675 q0 54 39 91 q39 37 100 37 q60 0 99.5 -37 q39.5 -37 39.5 -91 q0 -53 -39.5 -90 q-39.5 -37 -99.5 -37 q-61 0 -100 37 q-39 37 -39 90 Z" /></font>
</defs>
</svg>
